<?xml version="1.0" encoding="UTF-8"?>
<!-- Generator: Adobe Illustrator 27.5.0, SVG Export Plug-In . SVG Version: 6.00 Build 0)  -->
<svg xmlns="http://www.w3.org/2000/svg" xmlns:xlink="http://www.w3.org/1999/xlink" version="1.1" id="Layer_1" x="0px" y="0px" viewBox="0 0 1773.2 267.7" style="enable-background:new 0 0 1773.2 267.7;" xml:space="preserve">
<style type="text/css">
	.st0{fill-rule:evenodd;clip-rule:evenodd;}
	.st1{fill:#D20A11;}
	.st2{fill:#D20A11;stroke:#D20A11;stroke-width:4;stroke-miterlimit:10;}
</style>
<g>
	<g>
		<path class="st0" d="M120.5,254H68.1V142.6c15.1,8.7,32.6,17.6,52.5,25.8V254z M68.1,119.2V45.1c0-3.1-0.5-4.8-2.2-7.1    c-1.5-2-3.6-3-5.2-3.9C57.3,32.7,55.5,32,50,31V11.9h44.7c4,0.9,7.5,2.2,10.3,3.9c2.7,1.4,5.4,3.3,8.1,5.9    c4.9,5.2,7.4,11.2,7.4,18.1v102.9C100.9,135,83.3,126.9,68.1,119.2"></path>
		<path d="M582.2,135.2c0-12-1.5-23.8-4.6-35.3c-2.8-11.2-6.9-21.2-12.6-29.9c-5.7-8.9-12.7-16-20.8-21.2c-4-2.5-8.3-4.5-12.7-6    c-4.5-1.1-9.1-1.7-13.8-1.7c-15.7,0-30.6,4-44.7,12v93.6c-9.7-4.9-19.2-2.5-27,0.5c-1.8,0.7-3.5,1.6-5.1,2.6    c-1.6,0.9-3.2,2-5.2,3.1c-3.7,2.1-8.2,4.4-14.1,6.2l-1.1,0.3V50.3c0-2.5-1.1-4.8-2.4-6.6c-0.9-1.2-2.7-2.7-4.2-3.8    c-3.1-2.2-6.4-2.9-11.4-3.8V16.9h44.7c6.2,0.9,11.3,3,15.3,6.4c1.1-0.6,2.7-1.2,4.6-1.9c2.1-0.7,5.7-1.8,10.8-3.4    c7.2-2.2,14.3-3.7,21.2-4.6c7-0.9,13.2-1.4,18.6-1.4c18.6,0,35.4,3.4,50.4,10.3c15,6.8,27.6,15.9,37.7,27.5    c10.1,11.5,17.7,24.6,22.9,39.4c5.2,14.8,7.8,30.2,7.8,46.1c0,15.5-2.6,30.1-7.8,43.7c-5.2,13.7-13.1,26.3-23.9,38    c-10.3,11.2-23.4,20.3-39.1,27.2c-7.8,3.2-16.1,5.7-24.8,7.4c-8.4,1.6-17.5,2.4-27.3,2.4h-93.1v-56c4.5-0.7,9-1.4,13.6-2.2    c4.2-0.7,11.4-1.8,18.6-3.2c7.1-1.3,14.9-3,19.6-5l0.7,36h40.6c14.4,0,26.9-3.9,37.3-11.7c10.1-7.7,17.8-18.2,23.2-31.7    c2.3-7,4.3-14.3,6-21.8C581.5,150.7,582.2,142.9,582.2,135.2"></path>
		<path class="st0" d="M196.7,238.5l-6.5,15.5h-42l27.7-66.7c12.1,3.3,24.8,6.3,38.1,8.9L196.7,238.5z M185.8,163.3l50.2-121.2    c0,0,1.4-3.1,1.8-6.4c0.4-4.2-6.3-4.4-6.3-4.4V11.9H290l66.3,161.6c-18.9,2.6-37.4,3.8-55.4,3.9l-39.5-96.5l-37.2,90.3    C211,169,198.2,166.3,185.8,163.3 M368.8,204l20.5,50h-57.1l-7.4-17.5l-12.2-30.5C330.5,206.1,349.2,205.5,368.8,204"></path>
		<path class="st1" d="M423.1,164.3C194.4,233.7,0,84.3,0,84.3s138.9,156.8,433.1,106.3c8.3-1.4,28.9-4.4,37.1-7.8    c6-2.5,12.4-6.5,12.8-13c0.5-6.5-4.2-13.3-11.1-17.4c-8-4.8-16.1-3.1-24,0C442.5,154.4,436,160.4,423.1,164.3"></path>
	</g>
	<g>
		<path class="st0" d="M755.8,171.2c11.3,0,20.3,9.5,20.3,23c0,13.1-8.9,22.1-20.8,22.1c-11.3,0-20.3-9.6-20.3-23.1    C735,180.2,744,171.2,755.8,171.2 M755.5,222.1c7.9,0,14.9-2.6,20.4-7.7c6.1-5.6,9.5-13.2,9.5-20.7c0-8.2-3-15.5-8.6-20.7    c-5.2-4.9-12.7-7.6-21.2-7.6c-9.8,0-18.4,4.2-24.1,11.9c-3.7,5-5.6,10.8-5.6,16.8c0,7.8,3.1,15.1,8.6,20.3    C739.5,219.3,747,222.1,755.5,222.1"></path>
		<path d="M816.4,211.3v-16.8h5c4.1,0,6.8,0.1,8.4,2v-7.9h-13.2v-15.3c3-0.6,5.7-1,8.1-1c4.1,0,7.2,0.9,9.9,2.9v-8.4h-29.7    c3,2.5,3.2,5.4,3.2,9.5v35c0,4.1-0.2,6.9-3.2,9.6h14.8C816.7,218.2,816.4,215.4,816.4,211.3"></path>
		<path class="st0" d="M918.3,212.1v-54.4c3.6-1,7.3-1.5,11-1.5c17.6,0,28.5,11.6,28.5,28.3c0,16.8-11.8,28.7-27.8,28.7    C927.1,213.3,923.2,212.9,918.3,212.1 M902.7,220.9h21.7c16.2,0,27.2-2.9,35.5-11.9c6.3-6.8,9.5-15.3,9.5-25.2    c0-11.1-4.4-20-12.7-26.6c-8.5-6.8-17.3-8.4-28.9-8.4h-25.1c3.9,3.4,4.2,7.2,4.2,12.7v46.7C906.9,213.5,906.7,217.3,902.7,220.9"></path>
		<path d="M994.5,220.9h32.9l3.8-10.6c-4.7,3.1-9.5,4.5-15,4.5c-2.4,0-5.7-0.3-9.9-1v-19.4h4.9c4.1,0,6.8,0.1,8.4,2v-7.9h-13.2    v-15.3c3-0.6,5.7-1,8.1-1c4.1,0,7.2,0.9,9.9,3v-8.5h-29.7c3,2.5,3.2,5.4,3.2,9.5v35C997.7,215.3,997.5,218.2,994.5,220.9"></path>
		<path d="M1060.1,211.3v-38.6c2.5-0.5,4.5-0.7,5.9-0.7c6.3,0,10.4,3.9,10.4,9.3c0,6-4.5,9.5-13.9,11.6l16.1,22.3    c2.6,3.7,6.6,5.7,10.5,5.7h0.6l4.2-0.2c-3.1-2.8-5.4-5.3-7-7.4l-14-18.7c6.9-2.9,12.1-6.9,12.1-13.8c0-7.8-6.8-13.7-17.9-13.7    h-18.7c3,2.5,3.2,5.4,3.2,9.5v35c0,4.1-0.2,6.9-3.2,9.6h14.8C1060.4,218.2,1060.1,215.4,1060.1,211.3"></path>
		<path d="M1104.3,220.9h13.7c-2.4-1.9-3.3-3.5-3.3-6.1c0-0.7,0.1-1.9,0.4-3.6l5.3-35.7l15.1,36.5c1.8,4.4,3.7,7.6,6.9,9.6    l18.8-46.2l4.4,38.1c0.1,0.5,0.1,1,0.1,1.4c0,2.6-1,4.6-3,6.1h14.7c-2.4-2.5-3.4-5.3-3.8-8.6l-4.7-37.1c-0.1-1.3-0.1-2.2-0.1-2.8    c0-2.4,0.6-4.1,2.3-5.6H1158l-15.9,40.2l-16.2-40.2h-13.8c1.8,1.7,2.7,2.7,2.7,4.7c0,1-0.2,2.3-0.4,3.8l-5.4,36.4    C1108.4,215.3,1107.1,218,1104.3,220.9"></path>
		<path class="st0" d="M1206.6,195.2l8.3-20.9l7.7,20.9H1206.6z M1199.2,213.5l5.2-12.9h20.2l4.6,12.5c0.6,1.5,1.1,2.8,1.1,4.2    c0,1.1-0.9,2-2.3,3.5h15.5c-3.7-3.2-5-5.9-6.1-8.8l-17.2-45.3h-12.3c1.3,1,1.9,1.9,1.9,3.3c0,1-0.3,2.5-0.9,4l-15.3,38.6    c-1.5,3.8-3,6.6-5.4,8.2h12.8c-1.6-1.5-2.4-2.7-2.4-3.8C1198.5,215.8,1198.8,214.6,1199.2,213.5"></path>
		<path d="M1278,211.3v-38.6h6.1c3.8,0,6.5,0.8,8.1,2.8l2.5-8.7H1256l-2.7,8.9c2.5-2.2,6.3-3,11.8-3h4.4v38.6c0,4.1-0.2,6.9-3.2,9.6    h14.8C1278.2,218.2,1278,215.4,1278,211.3"></path>
		<path class="st0" d="M1340.9,171.2c11.3,0,20.3,9.5,20.3,23c0,13.1-8.9,22.1-20.8,22.1c-11.3,0-20.3-9.6-20.3-23.1    C1320.1,180.2,1329.1,171.2,1340.9,171.2 M1340.6,222.1c7.9,0,14.9-2.6,20.4-7.7c6.1-5.6,9.5-13.2,9.5-20.7c0-8.2-3-15.5-8.6-20.7    c-5.2-4.9-12.7-7.6-21.2-7.6c-9.8,0-18.4,4.2-24.1,11.9c-3.7,5-5.6,10.8-5.6,16.8c0,7.8,3.1,15.1,8.6,20.3    C1324.6,219.3,1332.1,222.1,1340.6,222.1"></path>
		<path d="M1389.9,220.9h32.9l3.8-10.6c-4.7,3.1-9.6,4.5-15,4.5c-2.4,0-5.7-0.3-10-1v-37.6c0-4.1,0.2-6.9,3.2-9.5h-14.8    c3,2.5,3.2,5.4,3.2,9.5v35C1393.1,215.3,1392.9,218.2,1389.9,220.9"></path>
		<path class="st0" d="M1471.9,171.2c11.3,0,20.3,9.5,20.3,23c0,13.1-8.9,22.1-20.8,22.1c-11.3,0-20.3-9.6-20.3-23.1    C1451.1,180.2,1460.1,171.2,1471.9,171.2 M1471.6,222.1c7.9,0,14.9-2.6,20.4-7.7c6.1-5.6,9.5-13.2,9.5-20.7c0-8.2-3-15.5-8.6-20.7    c-5.2-4.9-12.7-7.6-21.2-7.6c-9.8,0-18.4,4.2-24.1,11.9c-3.7,5-5.6,10.8-5.6,16.8c0,7.8,3.1,15.1,8.6,20.3    C1455.6,219.3,1463.1,222.1,1471.6,222.1"></path>
		<path d="M1563.7,175.7v-8.6c-5.3-1.1-9.7-1.7-13.5-1.7c-8.5,0-15.6,2.6-21.2,7.8c-6.1,5.7-9.4,13.1-9.4,21.1    c0,9.8,5,18.7,12.9,23.5c5.1,3.1,11.2,4.5,18.4,4.5c5.2,0,11.2-0.8,18.1-2.4v-26.3h-10.5c2.9,2.5,3.2,5.4,3.2,9.5v11.4    c-3.7,1.2-7.3,1.8-10.5,1.8c-13.7,0-22.3-8.8-22.3-22.7c0-13.4,8.5-22.2,20.9-22.2C1554.7,171.3,1559.1,172.7,1563.7,175.7"></path>
		<path d="M1601.4,211.3v-35c0-4.1,0.2-6.9,3.2-9.5h-14.8c3,2.5,3.2,5.4,3.2,9.5v35c0,4.1-0.2,6.9-3.2,9.6h14.8    C1601.7,218.2,1601.4,215.4,1601.4,211.3"></path>
		<path d="M1625.4,219.7c5.3,1.7,10.1,2.6,14.4,2.6c13.4,0,22.3-7.8,22.3-16.7c0-4-1.9-7.8-5.1-10.3c-3.7-2.9-7.5-4.5-11.1-6.1    c-7.8-3.7-12.2-6.1-12.2-10.9c0-4.1,3.8-7.2,10.3-7.2c5,0,9.4,1.7,13.8,5v-9.1c-5-1-9.3-1.4-12.9-1.4c-12.8,0-20.1,5.8-20.1,14.4    c0,6.9,4.7,10.7,13.8,15.2c6.7,3.4,11.4,5.3,13.2,8c0.9,1.3,1.4,2.8,1.4,4.2c0,4.9-4.6,8.6-12.4,8.6c-5.8,0-11.7-2.1-17.9-6.2    L1625.4,219.7z"></path>
		<path d="M1702.5,211.3v-38.6h6.1c3.8,0,6.5,0.8,8.1,2.8l2.5-8.7h-38.7l-2.7,8.9c2.5-2.2,6.3-3,11.8-3h4.4v38.6    c0,4.1-0.2,6.9-3.2,9.6h14.8C1702.7,218.2,1702.5,215.4,1702.5,211.3"></path>
		<path d="M1736.5,219.7c5.3,1.7,10.1,2.6,14.4,2.6c13.4,0,22.3-7.8,22.3-16.7c0-4-1.9-7.8-5.1-10.3c-3.7-2.9-7.5-4.5-11.1-6.1    c-7.8-3.7-12.2-6.1-12.2-10.9c0-4.1,3.8-7.2,10.3-7.2c4.9,0,9.4,1.7,13.8,5v-9.1c-5-1-9.3-1.4-12.9-1.4    c-12.8,0-20.1,5.8-20.1,14.4c0,6.9,4.7,10.7,13.8,15.2c6.7,3.4,11.4,5.3,13.2,8c0.9,1.3,1.4,2.8,1.4,4.2c0,4.9-4.6,8.6-12.4,8.6    c-5.8,0-11.7-2.1-17.9-6.2L1736.5,219.7z"></path>
		<path d="M743.1,116.7V70c0-5.4,0.3-9.3,4.3-12.7h-19.8c3.9,3.4,4.3,7.2,4.3,12.7v46.7c0,5.4-0.3,9.3-4.3,12.8h19.8    C743.4,125.9,743.1,122.1,743.1,116.7"></path>
		<path d="M785.5,119.9V81.2c2.5-0.5,4.5-0.7,5.9-0.7c6.3,0,10.4,3.9,10.4,9.3c0,6-4.5,9.5-13.9,11.6l16.1,22.3    c2.6,3.7,6.6,5.7,10.5,5.7h0.6l4.2-0.2c-3.1-2.8-5.4-5.3-7-7.4l-14-18.7c6.9-2.9,12.1-6.9,12.1-13.8c0-7.8-6.8-13.7-17.9-13.7    h-18.7c3,2.5,3.2,5.4,3.2,9.5v35c0,4.1-0.2,6.9-3.2,9.6h14.8C785.8,126.8,785.5,123.9,785.5,119.9"></path>
		<path d="M846,119.9v-35c0-4.1,0.2-6.9,3.2-9.5h-14.8c3,2.5,3.2,5.4,3.2,9.5v35c0,4.1-0.2,6.9-3.2,9.6h14.8    C846.2,126.8,846,123.9,846,119.9"></path>
		<path d="M870,128.2c5.3,1.7,10.1,2.6,14.4,2.6c13.4,0,22.3-7.8,22.3-16.7c0-4-1.9-7.8-5.1-10.3c-3.7-2.9-7.5-4.5-11.1-6.1    c-7.8-3.7-12.2-6.1-12.2-10.9c0-4.1,3.8-7.2,10.3-7.2c5,0,9.4,1.7,13.8,5v-9.1c-5-1-9.3-1.4-12.9-1.4c-12.8,0-20.1,5.8-20.1,14.4    c0,6.9,4.7,10.7,13.8,15.2c6.7,3.4,11.4,5.3,13.2,8c0.9,1.3,1.4,2.8,1.4,4.2c0,4.9-4.6,8.6-12.4,8.6c-5.8,0-11.7-2.1-17.9-6.2    L870,128.2z"></path>
		<path d="M937.4,119.9v-16.7h29.2v16.7c0,4.1-0.2,6.9-3.2,9.6h14.9c-3-2.6-3.2-5.5-3.2-9.6v-35c0-4.1,0.2-6.9,3.2-9.5h-14.9    c3,2.5,3.2,5.4,3.2,9.5V97h-29.2V84.8c0-4.1,0.2-6.9,3.2-9.5h-14.8c3,2.5,3.2,5.4,3.2,9.5v35c0,4.1-0.2,6.9-3.2,9.6h14.8    C937.7,126.8,937.4,123.9,937.4,119.9"></path>
		<path class="st0" d="M1063,95.2l11.1-27.9l10.2,27.9H1063z M1053.2,119.7l6.9-17.2h26.9l6.2,16.7c0.7,2,1.5,3.7,1.5,5.6    c0,1.5-1.2,2.7-3.1,4.7h20.7c-5-4.3-6.7-7.9-8.2-11.7l-23-60.4h-16.4c1.7,1.3,2.5,2.5,2.5,4.4c0,1.4-0.4,3.3-1.3,5.3l-20.3,51.5    c-2,5.1-4,8.7-7.2,11h17c-2.1-2-3.2-3.6-3.2-5.1C1052.3,122.7,1052.6,121.1,1053.2,119.7"></path>
		<path d="M1128.3,128.2c5.3,1.7,10.1,2.6,14.4,2.6c13.4,0,22.3-7.8,22.3-16.7c0-4-1.9-7.8-5.1-10.3c-3.7-2.9-7.5-4.5-11.1-6.1    c-7.8-3.7-12.2-6.1-12.2-10.9c0-4.1,3.8-7.2,10.3-7.2c4.9,0,9.4,1.7,13.8,5v-9.1c-5-1-9.3-1.4-12.9-1.4    c-12.8,0-20.1,5.8-20.1,14.4c0,6.9,4.7,10.7,13.8,15.2c6.7,3.4,11.4,5.3,13.2,8c0.9,1.3,1.4,2.8,1.4,4.2c0,4.9-4.6,8.6-12.4,8.6    c-5.8,0-11.7-2.1-17.9-6.2L1128.3,128.2z"></path>
		<path d="M1183.9,128.2c5.3,1.7,10.1,2.6,14.4,2.6c13.4,0,22.3-7.8,22.3-16.7c0-4-1.9-7.8-5.1-10.3c-3.7-2.9-7.5-4.5-11.1-6.1    c-7.8-3.7-12.2-6.1-12.2-10.9c0-4.1,3.8-7.2,10.3-7.2c5,0,9.4,1.7,13.8,5v-9.1c-5-1-9.3-1.4-12.9-1.4c-12.8,0-20.1,5.8-20.1,14.4    c0,6.9,4.7,10.7,13.8,15.2c6.7,3.4,11.4,5.3,13.2,8c0.9,1.3,1.4,2.8,1.4,4.2c0,4.9-4.6,8.6-12.4,8.6c-5.8,0-11.7-2.1-17.9-6.2    L1183.9,128.2z"></path>
		<path class="st0" d="M1268.4,79.8c11.3,0,20.3,9.5,20.3,23c0,13.1-8.9,22.1-20.8,22.1c-11.3,0-20.3-9.6-20.3-23.1    C1247.7,88.7,1256.6,79.8,1268.4,79.8 M1268.1,130.7c7.9,0,14.9-2.6,20.4-7.7c6.1-5.6,9.5-13.2,9.5-20.7c0-8.2-3-15.5-8.6-20.7    c-5.2-4.9-12.7-7.6-21.2-7.6c-9.8,0-18.4,4.2-24.1,11.9c-3.7,5-5.6,10.8-5.6,16.8c0,7.8,3.1,15.1,8.6,20.3    C1252.1,127.8,1259.6,130.7,1268.1,130.7"></path>
		<path d="M1363.6,118.6c-6.5,3.7-12.1,5.6-17.3,5.6c-12.2,0-20.6-9-20.6-22.7c0-12.4,8.1-20.5,20-20.5c4.4,0,8.7,1.4,13.3,3.8v-8.7    c-4.7-1.4-8.9-2.2-12.7-2.2c-8.1,0-15.3,2.7-20.8,7.8c-6.1,5.6-9.4,13.1-9.4,20.6c0,10.3,4.9,19.1,12.8,23.9    c5,2.9,10.7,4.6,16.9,4.6c4.2,0,8.7-0.9,13.6-2.5L1363.6,118.6z"></path>
		<path d="M1393.6,119.9v-35c0-4.1,0.2-6.9,3.2-9.5h-14.8c3,2.5,3.2,5.4,3.2,9.5v35c0,4.1-0.2,6.9-3.2,9.6h14.8    C1393.8,126.8,1393.6,123.9,1393.6,119.9"></path>
		<path class="st0" d="M1429,103.7l8.3-20.9l7.6,20.9H1429z M1421.7,122.1l5.2-12.9h20.2l4.6,12.5c0.6,1.5,1.1,2.8,1.1,4.2    c0,1.1-0.9,2-2.3,3.5h15.5c-3.7-3.2-5-5.9-6.1-8.8l-17.2-45.3h-12.3c1.3,1,1.9,1.9,1.9,3.3c0,1-0.3,2.5-0.9,4l-15.3,38.6    c-1.5,3.8-3,6.6-5.4,8.2h12.8c-1.6-1.5-2.4-2.7-2.4-3.8C1421,124.4,1421.2,123.2,1421.7,122.1"></path>
		<path d="M1500.4,119.9V81.2h6.1c3.8,0,6.5,0.8,8.1,2.8l2.5-8.7h-38.7l-2.7,8.9c2.5-2.2,6.3-3,11.8-3h4.4v38.6    c0,4.1-0.2,6.9-3.2,9.6h14.8C1500.6,126.8,1500.4,123.9,1500.4,119.9"></path>
		<path d="M1546.5,119.9v-35c0-4.1,0.2-6.9,3.2-9.5h-14.8c3,2.5,3.2,5.4,3.2,9.5v35c0,4.1-0.2,6.9-3.2,9.6h14.8    C1546.7,126.8,1546.5,123.9,1546.5,119.9"></path>
		<path class="st0" d="M1599.4,79.8c11.3,0,20.3,9.5,20.3,23c0,13.1-8.9,22.1-20.8,22.1c-11.3,0-20.3-9.6-20.3-23.1    C1578.7,88.7,1587.6,79.8,1599.4,79.8 M1599.1,130.7c7.9,0,14.9-2.6,20.4-7.7c6.1-5.6,9.5-13.2,9.5-20.7c0-8.2-3-15.5-8.6-20.7    c-5.2-4.9-12.7-7.6-21.2-7.6c-9.8,0-18.4,4.2-24.1,11.9c-3.7,5-5.6,10.8-5.6,16.8c0,7.8,3.1,15.1,8.6,20.3    C1583.1,127.8,1590.6,130.7,1599.1,130.7"></path>
		<path d="M1700.5,75.3h-12.3c3,2.5,3.2,5.4,3.2,9.5V116l-32-40.6h-11c3,2.5,3.2,5.4,3.2,9.5v35c0,4.1-0.2,6.9-3.2,9.6h12.3    c-3-2.6-3.1-5.5-3.1-9.6V87l27.9,35.2c4.1,5.2,7.2,8.4,11.8,8.5V84.8C1697.3,80.8,1697.6,77.9,1700.5,75.3"></path>
	</g>
	<line class="st2" x1="678.2" y1="0" x2="678.2" y2="267.7"></line>
</g>
</svg>
