<?xml version="1.0" encoding="UTF-8"?>
<svg xmlns="http://www.w3.org/2000/svg" id="Layer_1" data-name="Layer 1" viewBox="0 0 755.03 578">
  <defs>
    <style>
      .cls-1 {
        fill: #006556;
      }
    </style>
  </defs>
  <path class="cls-1" d="M431.44,312.55s37.67-60.25,132.75-48.05c95.1,12.21,129.78-15.88,129.78-15.88,0,0-64.75,91.4-139.9,66.82-75.14-24.59-122.64-2.88-122.64-2.88"></path>
  <path class="cls-1" d="M371.37,526s37.68-60.23,132.78-48.05c95.1,12.22,129.8-15.87,129.8-15.87,0,0-64.77,91.37-139.93,66.8-75.14-24.6-122.65-2.88-122.65-2.88"></path>
  <path class="cls-1" d="M492.49,110.68s37.67-60.23,132.75-48.03c95.08,12.21,129.78-15.88,129.78-15.88,0,0-64.79,91.37-139.91,66.79-75.14-24.59-122.63-2.88-122.63-2.88"></path>
  <path class="cls-1" d="M307.73,258.08s-6.88,6.57-41.76,6.57h-94.52c-15.16,0-17.3,6.18-17.3,6.18,.68-3.72,2.68-13.61,3.34-17.29,18.78-102.81,33.57-183.56,34.26-186.39,5.5-22.23,25.05-26.8,25.05-26.8l-90.55-.12s-18.5,.35-25.09,27.1c-1.88,7.72-65.61,359.56-79.2,438.05-3.11,17.97-21.96,24.38-21.96,24.38H89.62s17.32-1.44,22-24.38c6.34-31.05,18.18-99.87,33.21-182.51,2.06-12.38,14.69-11.15,14.69-11.15h90.26s29.79,.59,43.37-14.77c13.59-15.32,14.58-38.86,14.58-38.86"></path>
  <path class="cls-1" d="M327.74,270.29c-18.16,350.79-270.63,297.97-270.63,297.97,0,0-.1,2.28-.1,2.63,39.28,8.13,333.65,54.95,352.14-263.17C427.32-43.06,679.8,9.73,679.8,9.73c0,0,.08-2.29,.1-2.64-39.31-8.11-333.65-54.97-352.16,263.19"></path>
</svg>
