<?xml version="1.0" encoding="UTF-8"?>
<!-- Generator: Adobe Illustrator 27.5.0, SVG Export Plug-In . SVG Version: 6.00 Build 0)  -->
<svg xmlns="http://www.w3.org/2000/svg" xmlns:xlink="http://www.w3.org/1999/xlink" version="1.1" id="layer" x="0px" y="0px" viewBox="0 0 599.9 271.8" style="enable-background:new 0 0 599.9 271.8;" xml:space="preserve">
<style type="text/css">
	.st0{fill:#005795;}
	.st1{fill:#E00069;}
	.st2{fill:#36BCEE;}
</style>
<g>
	<path class="st0" d="M180.8,195.9c0.8,3.5,2.2,6.7,4,9.7H4.8c-2.7,0-4.8-2.2-4.8-4.8c0-2.7,2.2-4.8,4.8-4.8L180.8,195.9    M552.4,195.9h-4.9c-12.4,0-38.3,0-48.7,37.2l-1.1,4.4l-18-232.3c-0.2-2.5-2.3-4.4-4.8-4.5c-2.5,0-4.6,1.9-4.8,4.4l-19.4,210.3   c-18.2-18.1-30.6-19.6-73.7-19.6H265.2c-2.9,3.6-5.9,6.8-8.9,9.7H377c46.3,0,53,0.9,74,24.3c1.3,1.4,3.3,2,5.1,1.4   c1.8-0.6,3.1-2.2,3.3-4.1l15.2-164.2L490.3,267c0.2,2.4,2,4.2,4.4,4.4c0.2,0,0.3,0,0.4,0c2.2,0,4.1-1.5,4.7-3.6l8.4-32.3   c8.4-30,27.1-30,39.4-30h4.9c2.7,0,4.8-2.2,4.8-4.8S555.1,195.9,552.4,195.9"></path>
	<path class="st1" d="M106.5,270.9c-4,0-6.6-2.3-6.6-6.5v-15.9c0-6.4-3.5-8.9-7.7-8.9c-3.1,0-7,2.3-7,9.2V271H82   c-4.6,0-6.7-2.6-6.7-6.5V223h3.1c4.6,0,6.9,2.6,6.9,6.2v7.1c1.5-2.3,4.8-5.2,8.5-5.2c10.1,0,16,6,16,17.1v22.9h-3.3V270.9z    M135.6,239c4.5,0,7.4,2,7.4,5.9c0,2.7-2.1,3.8-11.3,3.8h-4.4l0.1-1.3C127.6,242.9,130.9,239,135.6,239 M133.8,255.5   c12.9,0,18.3-2.3,18.3-9.5c0-9.3-7.5-15.1-15.6-15.1c-11.2,0-19.1,8.2-19.1,21.2c0,12,9.5,19.7,19.2,19.7c10.7,0,14.1-3.8,14.1-8.9   v-3h-0.4c-3.1,2.9-7.9,3.7-11.9,3.7c-5.7,0-10.2-3.1-10.9-8h6.3 M180.7,257.6c0,4-2,6-6.2,6c-4.3,0-6.7-1.8-6.7-4.8   c0-3.2,2.1-4.9,9.5-4.9h3.5L180.7,257.6L180.7,257.6z M175.4,271.5c8.7,0,14.8-5.7,14.8-14v-9c0-13.5-7.8-17.5-16.5-17.5   c-10.3,0-14.2,5.2-14.2,9.6v3.1h0.4c1.5-1.8,5.3-4.5,12.4-4.5c5.8,0,8.4,1.7,8.4,7.2v0.5h-3.4c-14.3,0-19.4,5.3-19.4,12.2   c0,7.2,6.4,12.4,15.7,12.4L175.4,271.5 M210.7,271.3c4.3,0,6.5-1.6,6.5-5.9v-2.1h-2.6c-4.6,0-6.6-1.3-6.6-5.2v-28.8   c0-3.7-2.1-6.5-7-6.5h-2.7v36.3C198.3,267,202.6,271.3,210.7,271.3 M224.6,225.4c-2.1,2.5-2.7,4.1-2.7,7.9v23.6   c0,9.1,4.8,14.5,14.6,14.5c5.6,0,8.5-2.5,8.5-6.5v-3.5h-0.4c-1.5,0.9-3.9,1.4-7,1.4c-3.9,0-6.2-2-6.2-7v-15.3h7.8   c4,0,5.8-2.6,5.8-4.6v-4h-13.6v-9h-2.1C227.8,222.8,225.6,224.2,224.6,225.4 M285.7,270.9V248c0-11.1-5.9-17.1-16-17.1   c-3.7,0-7,2.9-8.5,5.2V229c0-3.6-2.2-6.2-6.9-6.2h-3v41.5c0,4,2.1,6.5,6.7,6.5h3.2v-22.2c0-6.9,4-9.2,7-9.2c4.3,0,7.8,2.5,7.8,8.9   v15.9c0,4.2,2.5,6.5,6.6,6.5h3.1V270.9z M325,244.4v-4.6c0-4.6-4.4-8.4-10.7-8.4c-13.3,0-21.1,9.6-21.1,20.7   c0,11.2,9.3,19.5,20,19.5c7,0,11.6-3.4,11.6-8.1V259h-0.4c-1.4,1.8-4.7,3.6-10.3,3.6c-6.6,0-10.8-4.8-10.8-12   c0-5.8,5-10.3,10.6-10.3c5.6,0,9.3,1.8,10.6,4L325,244.4L325,244.4z M353.2,257.6c0,4-2,6-6.2,6c-4.3,0-6.7-1.8-6.7-4.8   c0-3.2,2.1-4.9,9.5-4.9h3.5L353.2,257.6L353.2,257.6z M347.9,271.5c8.7,0,14.8-5.7,14.8-14v-9c0-13.5-7.8-17.5-16.5-17.5   c-10.3,0-14.2,5.2-14.2,9.6v3.1h0.4c1.4-1.8,5.4-4.5,12.4-4.5c5.8,0,8.4,1.7,8.4,7.2v0.5h-3.4c-14.3,0-19.4,5.3-19.4,12.2   c0,7.2,6.4,12.4,15.6,12.4L347.9,271.5 M392.9,241.3v-3.5c0-3-2.1-6.4-8.1-6.4c-10.3,0-14.4,7.5-14.4,15.3v18   c0,4.1,2.7,6.2,7.1,6.2h2.7v-22.4c0-5.9,2.4-8.4,6.7-8.4c2.5,0,4.2,0.6,5.7,1.2L392.9,241.3L392.9,241.3z M414.8,239   c4.5,0,7.4,2,7.4,5.9c0,2.7-2.1,3.8-11.3,3.8h-4.3l0.1-1.3C406.9,242.9,410.1,239,414.8,239 M413,255.5c12.9,0,18.3-2.3,18.3-9.5   c0-9.3-7.5-15.1-15.7-15.1c-11.1,0-19.1,8.2-19.1,21.2c0,12,9.5,19.7,19.2,19.7c10.7,0,14.1-3.8,14.1-8.9v-3h-0.4   c-3.1,2.9-7.9,3.7-12,3.7c-5.7,0-10.2-3.1-11-8h6.6"></path>
	<path class="st2" d="M580.8,195.9c2.6,0,4.8,2.1,4.8,4.8c0,2.6-2.2,4.8-4.8,4.8s-4.8-2.2-4.8-4.8   C576.1,198,578.2,195.9,580.8,195.9"></path>
	<path class="st1" d="M595.1,195.9c2.6,0,4.8,2.1,4.8,4.8c0,2.6-2.2,4.8-4.8,4.8s-4.8-2.2-4.8-4.8   C590.3,198,592.4,195.9,595.1,195.9"></path>
	<path class="st0" d="M566.6,195.9c2.7,0,4.8,2.1,4.8,4.8c0,2.6-2.1,4.8-4.8,4.8s-4.8-2.2-4.8-4.8C561.8,198,564,195.9,566.6,195.9"></path>
	<path class="st2" d="M44.3,170.7c-28.2,0-43.4-15-43.4-42.6V0h9.6c17,0,24.4,9.9,24.4,22.9v101.9c0,13.7,7.1,18,23.1,18h9.2v7.4   C67.1,164.9,59.3,170.7,44.3,170.7 M157.5,121.9c0,14-7.1,21.1-21.9,21.1c-15,0-23.6-6.4-23.6-17c0-11.2,7.4-17.3,33.3-17.3h12.2   V121.9z M138.9,170.7c30.5,0,51.8-20.1,51.8-49V90.2c0-47.2-27.4-61.5-57.9-61.5C96.7,28.7,83,47,83,62.2v10.9h1.3   c5.1-6.4,18.8-15.8,43.4-15.8c20.3,0,29.5,5.8,29.5,25.1v1.8h-11.9c-50.3,0-68,18.5-68,42.9c0,25.1,22.3,43.4,54.8,43.4h6.8    M256.8,125.7c-1.2-2.5-2.4-5.2-3.7-8c-9.8-21.8-20.2-49.8-23.9-70.4c-1.8-9.6-10.4-16-19.8-16h-18c4.1,29.2,26.8,93.4,47.6,126.6   c0.2,0.4,0.5,0.9,0.7,1.3c0,0,0,0.1,0.1,0.1c6.7-9.9,12.6-21.1,17.6-32.7C257.1,126.2,257,126,256.8,125.7 M282.6,36.9   c-0.3,1.9-0.6,4-0.9,6c-0.8,4.8-1.9,9.8-3.1,15c-4,18.3-10.8,44.2-21.3,68.7c-5,11.5-11.4,22.4-17.6,32.7l-2.5,3.5   c-10.4,14.4-30.2,34.8-46.5,21.4h-0.2l-0.2,0.2c-1,8.2,1,19,13.7,25.3c4.4,2.2,9.2,2.7,13.6,3.2c21.7,0,42.7-18.9,61.9-59.8   c1.9-4.1,3.6-7.8,6-13.3c6.9-15.9,28.6-77.8,28.6-92.3c0-11.2-5.1-16-16-16h-4h-8.2h-2.6c-0.1,0.8-0.2,1.7-0.3,2.6L282.6,36.9z    M396.6,121.9c0,14-7.1,21.1-21.8,21.1c-15,0-23.6-6.4-23.6-17c0-11.2,7.4-17.3,33.3-17.3h12.2v13.2H396.6z M378.1,170.7   c30.5,0,51.8-20.1,51.8-49V90.2c0-47.2-27.4-61.5-57.9-61.5c-36.1,0-49.8,18.3-49.8,33.5v10.9h1.2c5.1-6.4,18.8-15.8,43.4-15.8   c20.3,0,29.5,5.8,29.5,25.1v1.8h-11.9c-50.2,0-68,18.5-68,42.9c0,25.1,22.3,43.4,54.8,43.4h6.9"></path>
</g>
</svg>
